<?xml version="1.0" standalone="no"?>
<!DOCTYPE svg PUBLIC "-//W3C//DTD SVG 20010904//EN"
 "http://www.w3.org/TR/2001/REC-SVG-20010904/DTD/svg10.dtd">
<svg version="1.0" xmlns="http://www.w3.org/2000/svg"
 width="160.000000pt" height="160.000000pt" viewBox="0 0 160.000000 160.000000"
 preserveAspectRatio="xMidYMid meet">
<metadata>
Created by potrace 1.16, written by Peter Selinger 2001-2019
</metadata>
<g transform="translate(0.000000,160.000000) scale(0.100000,-0.100000)"
fill="#000000" stroke="none">
<path d="M202 1575 c-56 -47 -62 -74 -62 -282 l0 -188 -30 -14 c-35 -15 -70
-75 -70 -118 0 -15 18 -60 39 -99 l39 -72 -34 -33 c-19 -18 -45 -56 -59 -83
-24 -49 -25 -55 -25 -278 0 -171 3 -237 14 -262 19 -46 73 -104 117 -127 37
-18 64 -19 621 -19 l583 0 50 24 c97 45 163 147 173 265 3 43 11 74 23 90 17
21 19 43 19 194 0 190 -7 215 -74 257 -19 11 -39 34 -46 50 l-12 30 -115 0
c-109 0 -113 1 -103 19 5 11 10 28 10 39 0 16 9 20 55 25 31 3 70 14 88 24 49
29 95 96 103 150 4 32 16 58 34 78 56 61 60 74 60 172 l0 93 -221 0 -222 0
-41 45 c-42 45 -43 45 -110 45 -66 0 -69 -1 -177 -70 -109 -69 -112 -70 -179
-70 -67 0 -70 1 -179 70 -107 68 -112 70 -175 70 -54 0 -69 -4 -94 -25z m549
-521 l-2 -91 51 -6 c28 -3 64 -14 81 -24 98 -58 97 -209 -3 -267 -67 -40 -174
-15 -208 49 -17 31 -23 31 -40 0 -21 -39 -77 -69 -129 -69 -89 0 -155 66 -155
153 0 87 58 146 154 158 l51 6 -1 86 c-1 47 -1 90 -1 94 1 4 47 6 102 5 l102
-3 -2 -91z m724 -329 c24 -23 25 -30 25 -145 0 -67 -5 -130 -10 -141 -11 -20
-69 -55 -71 -42 -1 5 -4 -5 -8 -22 l-6 -30 -130 0 -129 0 -8 35 c-4 19 -12 85
-18 146 -5 62 -13 126 -16 143 l-6 31 122 0 c116 0 124 1 152 25 37 32 72 32
103 0z m-500 -276 c22 -6 56 -28 76 -48 82 -81 71 -205 -24 -275 -27 -20 -41
-21 -254 -21 l-225 0 1 120 c1 66 4 121 6 123 2 3 44 -3 92 -12 48 -9 91 -16
94 -16 4 0 12 13 19 29 16 40 61 80 106 96 48 17 59 18 109 4z"/>
</g>
</svg>
